<mxfile host="app.diagrams.net" modified="2021-06-22T13:34:04.283Z" agent="5.0 (Windows NT 10.0; Win64; x64) AppleWebKit/537.36 (KHTML, like Gecko) Chrome/91.0.4472.114 Safari/537.36 Edg/91.0.864.54" etag="Bo63yeBNu5XQSXDWMufz" version="14.8.0" type="github">
  <diagram id="C5RBs43oDa-KdzZeNtuy" name="Page-1">
    <mxGraphModel dx="1422" dy="794" grid="1" gridSize="10" guides="1" tooltips="1" connect="1" arrows="1" fold="1" page="1" pageScale="1" pageWidth="827" pageHeight="1169" math="0" shadow="0">
      <root>
        <mxCell id="WIyWlLk6GJQsqaUBKTNV-0" />
        <mxCell id="WIyWlLk6GJQsqaUBKTNV-1" parent="WIyWlLk6GJQsqaUBKTNV-0" />
        <mxCell id="WIyWlLk6GJQsqaUBKTNV-2" value="" style="rounded=0;html=1;jettySize=auto;orthogonalLoop=1;fontSize=11;endArrow=block;endFill=0;endSize=8;strokeWidth=1;shadow=0;labelBackgroundColor=none;edgeStyle=orthogonalEdgeStyle;" parent="WIyWlLk6GJQsqaUBKTNV-1" source="WIyWlLk6GJQsqaUBKTNV-3" target="WIyWlLk6GJQsqaUBKTNV-6" edge="1">
          <mxGeometry relative="1" as="geometry" />
        </mxCell>
        <mxCell id="WIyWlLk6GJQsqaUBKTNV-3" value="Start" style="rounded=1;whiteSpace=wrap;html=1;fontSize=12;glass=0;strokeWidth=1;shadow=0;arcSize=50;" parent="WIyWlLk6GJQsqaUBKTNV-1" vertex="1">
          <mxGeometry x="205" width="40" height="40" as="geometry" />
        </mxCell>
        <mxCell id="WIyWlLk6GJQsqaUBKTNV-4" value="Yes" style="rounded=0;html=1;jettySize=auto;orthogonalLoop=1;fontSize=11;endArrow=block;endFill=0;endSize=8;strokeWidth=1;shadow=0;labelBackgroundColor=none;edgeStyle=orthogonalEdgeStyle;" parent="WIyWlLk6GJQsqaUBKTNV-1" source="WIyWlLk6GJQsqaUBKTNV-6" target="WIyWlLk6GJQsqaUBKTNV-10" edge="1">
          <mxGeometry y="20" relative="1" as="geometry">
            <mxPoint as="offset" />
          </mxGeometry>
        </mxCell>
        <mxCell id="WIyWlLk6GJQsqaUBKTNV-5" value="No" style="edgeStyle=orthogonalEdgeStyle;rounded=0;html=1;jettySize=auto;orthogonalLoop=1;fontSize=11;endArrow=block;endFill=0;endSize=8;strokeWidth=1;shadow=0;labelBackgroundColor=none;" parent="WIyWlLk6GJQsqaUBKTNV-1" source="WIyWlLk6GJQsqaUBKTNV-6" target="WIyWlLk6GJQsqaUBKTNV-7" edge="1">
          <mxGeometry y="10" relative="1" as="geometry">
            <mxPoint as="offset" />
          </mxGeometry>
        </mxCell>
        <mxCell id="WIyWlLk6GJQsqaUBKTNV-6" value="Is server Online ?" style="rhombus;whiteSpace=wrap;html=1;shadow=0;fontFamily=Helvetica;fontSize=12;align=center;strokeWidth=1;spacing=6;spacingTop=-4;" parent="WIyWlLk6GJQsqaUBKTNV-1" vertex="1">
          <mxGeometry x="170" y="80" width="110" height="90" as="geometry" />
        </mxCell>
        <mxCell id="WIyWlLk6GJQsqaUBKTNV-7" value="Error" style="rounded=1;whiteSpace=wrap;html=1;fontSize=12;glass=0;strokeWidth=1;shadow=0;" parent="WIyWlLk6GJQsqaUBKTNV-1" vertex="1">
          <mxGeometry x="30" y="105" width="90" height="40" as="geometry" />
        </mxCell>
        <mxCell id="WIyWlLk6GJQsqaUBKTNV-8" value="No" style="rounded=0;html=1;jettySize=auto;orthogonalLoop=1;fontSize=11;endArrow=block;endFill=0;endSize=8;strokeWidth=1;shadow=0;labelBackgroundColor=none;edgeStyle=orthogonalEdgeStyle;" parent="WIyWlLk6GJQsqaUBKTNV-1" source="WIyWlLk6GJQsqaUBKTNV-10" target="WIyWlLk6GJQsqaUBKTNV-11" edge="1">
          <mxGeometry x="-0.7931" y="-10" relative="1" as="geometry">
            <mxPoint as="offset" />
          </mxGeometry>
        </mxCell>
        <mxCell id="WIyWlLk6GJQsqaUBKTNV-9" value="Yes" style="edgeStyle=orthogonalEdgeStyle;rounded=0;html=1;jettySize=auto;orthogonalLoop=1;fontSize=11;endArrow=block;endFill=0;endSize=8;strokeWidth=1;shadow=0;labelBackgroundColor=none;entryX=0.5;entryY=0;entryDx=0;entryDy=0;" parent="WIyWlLk6GJQsqaUBKTNV-1" source="WIyWlLk6GJQsqaUBKTNV-10" target="KXy6QdtDt1s3OpIdcK68-0" edge="1">
          <mxGeometry x="-0.3448" y="16" relative="1" as="geometry">
            <mxPoint x="-13" y="6" as="offset" />
            <mxPoint x="390" y="230" as="targetPoint" />
          </mxGeometry>
        </mxCell>
        <mxCell id="WIyWlLk6GJQsqaUBKTNV-10" value="Network&lt;br&gt;Identity&lt;br&gt;is Valide?" style="rhombus;whiteSpace=wrap;html=1;shadow=0;fontFamily=Helvetica;fontSize=12;align=center;strokeWidth=1;spacing=6;spacingTop=-4;" parent="WIyWlLk6GJQsqaUBKTNV-1" vertex="1">
          <mxGeometry x="175" y="200" width="100" height="80" as="geometry" />
        </mxCell>
        <mxCell id="WIyWlLk6GJQsqaUBKTNV-11" value="Show Windows Netwokcredential" style="rounded=1;whiteSpace=wrap;html=1;fontSize=12;glass=0;strokeWidth=1;shadow=0;" parent="WIyWlLk6GJQsqaUBKTNV-1" vertex="1">
          <mxGeometry x="30" y="300" width="120" height="40" as="geometry" />
        </mxCell>
        <mxCell id="WIyWlLk6GJQsqaUBKTNV-12" value="No Admin to Run Setups" style="rounded=1;whiteSpace=wrap;html=1;fontSize=12;glass=0;strokeWidth=1;shadow=0;arcSize=0;" parent="WIyWlLk6GJQsqaUBKTNV-1" vertex="1">
          <mxGeometry x="650" y="520" width="90" height="40" as="geometry" />
        </mxCell>
        <mxCell id="KXy6QdtDt1s3OpIdcK68-1" value="" style="edgeStyle=orthogonalEdgeStyle;rounded=0;orthogonalLoop=1;jettySize=auto;html=1;entryX=0.413;entryY=0.017;entryDx=0;entryDy=0;entryPerimeter=0;" edge="1" parent="WIyWlLk6GJQsqaUBKTNV-1" source="KXy6QdtDt1s3OpIdcK68-0" target="KXy6QdtDt1s3OpIdcK68-2">
          <mxGeometry relative="1" as="geometry">
            <mxPoint x="225" y="370" as="targetPoint" />
          </mxGeometry>
        </mxCell>
        <mxCell id="KXy6QdtDt1s3OpIdcK68-6" value="" style="edgeStyle=orthogonalEdgeStyle;rounded=0;orthogonalLoop=1;jettySize=auto;html=1;entryX=0;entryY=0.75;entryDx=0;entryDy=0;" edge="1" parent="WIyWlLk6GJQsqaUBKTNV-1" source="KXy6QdtDt1s3OpIdcK68-0" target="KXy6QdtDt1s3OpIdcK68-3">
          <mxGeometry relative="1" as="geometry" />
        </mxCell>
        <mxCell id="KXy6QdtDt1s3OpIdcK68-0" value="Is Current User &lt;br&gt;Admin?" style="rhombus;whiteSpace=wrap;html=1;" vertex="1" parent="WIyWlLk6GJQsqaUBKTNV-1">
          <mxGeometry x="330" y="270" width="100" height="120" as="geometry" />
        </mxCell>
        <mxCell id="KXy6QdtDt1s3OpIdcK68-4" value="" style="edgeStyle=orthogonalEdgeStyle;rounded=0;orthogonalLoop=1;jettySize=auto;html=1;entryX=0.5;entryY=0;entryDx=0;entryDy=0;" edge="1" parent="WIyWlLk6GJQsqaUBKTNV-1" source="KXy6QdtDt1s3OpIdcK68-2" target="KXy6QdtDt1s3OpIdcK68-11">
          <mxGeometry relative="1" as="geometry">
            <mxPoint x="340" y="400" as="targetPoint" />
          </mxGeometry>
        </mxCell>
        <mxCell id="KXy6QdtDt1s3OpIdcK68-56" value="" style="edgeStyle=orthogonalEdgeStyle;rounded=0;orthogonalLoop=1;jettySize=auto;html=1;entryX=0.5;entryY=0;entryDx=0;entryDy=0;" edge="1" parent="WIyWlLk6GJQsqaUBKTNV-1" source="KXy6QdtDt1s3OpIdcK68-2" target="KXy6QdtDt1s3OpIdcK68-36">
          <mxGeometry relative="1" as="geometry">
            <mxPoint x="170" y="615" as="targetPoint" />
          </mxGeometry>
        </mxCell>
        <mxCell id="KXy6QdtDt1s3OpIdcK68-2" value="Is Installed?" style="rhombus;whiteSpace=wrap;html=1;" vertex="1" parent="WIyWlLk6GJQsqaUBKTNV-1">
          <mxGeometry x="230" y="585" width="80" height="60" as="geometry" />
        </mxCell>
        <mxCell id="KXy6QdtDt1s3OpIdcK68-14" value="" style="edgeStyle=orthogonalEdgeStyle;rounded=0;orthogonalLoop=1;jettySize=auto;html=1;" edge="1" parent="WIyWlLk6GJQsqaUBKTNV-1" source="KXy6QdtDt1s3OpIdcK68-3" target="KXy6QdtDt1s3OpIdcK68-5">
          <mxGeometry relative="1" as="geometry" />
        </mxCell>
        <mxCell id="KXy6QdtDt1s3OpIdcK68-3" value="Get Prev. User Identity from App.Config" style="whiteSpace=wrap;html=1;" vertex="1" parent="WIyWlLk6GJQsqaUBKTNV-1">
          <mxGeometry x="450" y="65" width="135" height="30" as="geometry" />
        </mxCell>
        <mxCell id="KXy6QdtDt1s3OpIdcK68-16" value="" style="edgeStyle=orthogonalEdgeStyle;rounded=0;orthogonalLoop=1;jettySize=auto;html=1;entryX=0.5;entryY=0;entryDx=0;entryDy=0;" edge="1" parent="WIyWlLk6GJQsqaUBKTNV-1" source="KXy6QdtDt1s3OpIdcK68-5" target="KXy6QdtDt1s3OpIdcK68-2">
          <mxGeometry relative="1" as="geometry">
            <mxPoint x="270" y="400" as="targetPoint" />
          </mxGeometry>
        </mxCell>
        <mxCell id="KXy6QdtDt1s3OpIdcK68-18" value="" style="edgeStyle=orthogonalEdgeStyle;rounded=0;orthogonalLoop=1;jettySize=auto;html=1;" edge="1" parent="WIyWlLk6GJQsqaUBKTNV-1" source="KXy6QdtDt1s3OpIdcK68-5" target="KXy6QdtDt1s3OpIdcK68-17">
          <mxGeometry relative="1" as="geometry" />
        </mxCell>
        <mxCell id="KXy6QdtDt1s3OpIdcK68-5" value="Is Prev. User Admin?" style="rhombus;whiteSpace=wrap;html=1;" vertex="1" parent="WIyWlLk6GJQsqaUBKTNV-1">
          <mxGeometry x="470" y="390" width="100" height="85" as="geometry" />
        </mxCell>
        <mxCell id="KXy6QdtDt1s3OpIdcK68-8" value="yes" style="text;html=1;strokeColor=none;fillColor=none;align=center;verticalAlign=middle;whiteSpace=wrap;rounded=0;" vertex="1" parent="WIyWlLk6GJQsqaUBKTNV-1">
          <mxGeometry x="275" y="300" width="40" height="20" as="geometry" />
        </mxCell>
        <mxCell id="KXy6QdtDt1s3OpIdcK68-9" value="No" style="text;html=1;align=center;verticalAlign=middle;resizable=0;points=[];autosize=1;strokeColor=none;" vertex="1" parent="WIyWlLk6GJQsqaUBKTNV-1">
          <mxGeometry x="420" y="310" width="30" height="20" as="geometry" />
        </mxCell>
        <mxCell id="KXy6QdtDt1s3OpIdcK68-10" value="yes" style="text;html=1;strokeColor=none;fillColor=none;align=center;verticalAlign=middle;whiteSpace=wrap;rounded=0;" vertex="1" parent="WIyWlLk6GJQsqaUBKTNV-1">
          <mxGeometry x="190" y="585" width="40" height="20" as="geometry" />
        </mxCell>
        <mxCell id="KXy6QdtDt1s3OpIdcK68-34" value="" style="edgeStyle=orthogonalEdgeStyle;rounded=0;orthogonalLoop=1;jettySize=auto;html=1;" edge="1" parent="WIyWlLk6GJQsqaUBKTNV-1" source="KXy6QdtDt1s3OpIdcK68-11" target="KXy6QdtDt1s3OpIdcK68-33">
          <mxGeometry relative="1" as="geometry" />
        </mxCell>
        <mxCell id="KXy6QdtDt1s3OpIdcK68-35" value="" style="edgeStyle=orthogonalEdgeStyle;rounded=0;orthogonalLoop=1;jettySize=auto;html=1;" edge="1" parent="WIyWlLk6GJQsqaUBKTNV-1" source="KXy6QdtDt1s3OpIdcK68-11">
          <mxGeometry relative="1" as="geometry">
            <mxPoint x="350" y="710" as="targetPoint" />
          </mxGeometry>
        </mxCell>
        <mxCell id="KXy6QdtDt1s3OpIdcK68-11" value="Compare Version ?&lt;br&gt;&amp;gt;" style="rhombus;whiteSpace=wrap;html=1;" vertex="1" parent="WIyWlLk6GJQsqaUBKTNV-1">
          <mxGeometry x="370" y="580" width="80" height="80" as="geometry" />
        </mxCell>
        <mxCell id="KXy6QdtDt1s3OpIdcK68-25" value="" style="edgeStyle=orthogonalEdgeStyle;rounded=0;orthogonalLoop=1;jettySize=auto;html=1;" edge="1" parent="WIyWlLk6GJQsqaUBKTNV-1" source="KXy6QdtDt1s3OpIdcK68-17" target="KXy6QdtDt1s3OpIdcK68-24">
          <mxGeometry relative="1" as="geometry" />
        </mxCell>
        <mxCell id="KXy6QdtDt1s3OpIdcK68-17" value="&lt;span&gt;Show Window to Get new Admin identity&lt;/span&gt;" style="whiteSpace=wrap;html=1;" vertex="1" parent="WIyWlLk6GJQsqaUBKTNV-1">
          <mxGeometry x="690" y="610" width="110" height="50" as="geometry" />
        </mxCell>
        <mxCell id="KXy6QdtDt1s3OpIdcK68-22" value="yes" style="text;html=1;strokeColor=none;fillColor=none;align=center;verticalAlign=middle;whiteSpace=wrap;rounded=0;" vertex="1" parent="WIyWlLk6GJQsqaUBKTNV-1">
          <mxGeometry x="440" y="410" width="40" height="20" as="geometry" />
        </mxCell>
        <mxCell id="KXy6QdtDt1s3OpIdcK68-23" value="No" style="text;html=1;align=center;verticalAlign=middle;resizable=0;points=[];autosize=1;strokeColor=none;" vertex="1" parent="WIyWlLk6GJQsqaUBKTNV-1">
          <mxGeometry x="570" y="410" width="30" height="20" as="geometry" />
        </mxCell>
        <mxCell id="KXy6QdtDt1s3OpIdcK68-27" value="" style="edgeStyle=orthogonalEdgeStyle;rounded=0;orthogonalLoop=1;jettySize=auto;html=1;entryX=0.5;entryY=0;entryDx=0;entryDy=0;" edge="1" parent="WIyWlLk6GJQsqaUBKTNV-1" source="KXy6QdtDt1s3OpIdcK68-24" target="KXy6QdtDt1s3OpIdcK68-2">
          <mxGeometry relative="1" as="geometry">
            <mxPoint x="530" y="310" as="targetPoint" />
          </mxGeometry>
        </mxCell>
        <mxCell id="KXy6QdtDt1s3OpIdcK68-31" value="" style="edgeStyle=orthogonalEdgeStyle;rounded=0;orthogonalLoop=1;jettySize=auto;html=1;" edge="1" parent="WIyWlLk6GJQsqaUBKTNV-1" source="KXy6QdtDt1s3OpIdcK68-24">
          <mxGeometry relative="1" as="geometry">
            <mxPoint x="700" y="520" as="targetPoint" />
          </mxGeometry>
        </mxCell>
        <mxCell id="KXy6QdtDt1s3OpIdcK68-24" value="Is New User Admin" style="rhombus;whiteSpace=wrap;html=1;" vertex="1" parent="WIyWlLk6GJQsqaUBKTNV-1">
          <mxGeometry x="585" y="440" width="95" height="80" as="geometry" />
        </mxCell>
        <mxCell id="KXy6QdtDt1s3OpIdcK68-29" value="yes" style="text;html=1;strokeColor=none;fillColor=none;align=center;verticalAlign=middle;whiteSpace=wrap;rounded=0;" vertex="1" parent="WIyWlLk6GJQsqaUBKTNV-1">
          <mxGeometry x="550" y="455" width="40" height="20" as="geometry" />
        </mxCell>
        <mxCell id="KXy6QdtDt1s3OpIdcK68-32" value="No" style="text;html=1;strokeColor=none;fillColor=none;align=center;verticalAlign=middle;whiteSpace=wrap;rounded=0;" vertex="1" parent="WIyWlLk6GJQsqaUBKTNV-1">
          <mxGeometry x="680" y="455" width="40" height="20" as="geometry" />
        </mxCell>
        <mxCell id="KXy6QdtDt1s3OpIdcK68-42" value="" style="edgeStyle=orthogonalEdgeStyle;rounded=0;orthogonalLoop=1;jettySize=auto;html=1;entryX=0.5;entryY=0;entryDx=0;entryDy=0;" edge="1" parent="WIyWlLk6GJQsqaUBKTNV-1" source="KXy6QdtDt1s3OpIdcK68-33" target="KXy6QdtDt1s3OpIdcK68-37">
          <mxGeometry relative="1" as="geometry">
            <mxPoint x="460" y="800" as="targetPoint" />
            <Array as="points">
              <mxPoint x="510" y="800" />
              <mxPoint x="458" y="800" />
            </Array>
          </mxGeometry>
        </mxCell>
        <mxCell id="KXy6QdtDt1s3OpIdcK68-33" value="Install Setup" style="whiteSpace=wrap;html=1;" vertex="1" parent="WIyWlLk6GJQsqaUBKTNV-1">
          <mxGeometry x="487.5" y="650" width="60" height="40" as="geometry" />
        </mxCell>
        <mxCell id="KXy6QdtDt1s3OpIdcK68-38" value="" style="edgeStyle=orthogonalEdgeStyle;rounded=0;orthogonalLoop=1;jettySize=auto;html=1;" edge="1" parent="WIyWlLk6GJQsqaUBKTNV-1" source="KXy6QdtDt1s3OpIdcK68-36" target="KXy6QdtDt1s3OpIdcK68-37">
          <mxGeometry relative="1" as="geometry" />
        </mxCell>
        <mxCell id="KXy6QdtDt1s3OpIdcK68-36" value="Setup is ready&amp;nbsp; installed" style="whiteSpace=wrap;html=1;" vertex="1" parent="WIyWlLk6GJQsqaUBKTNV-1">
          <mxGeometry x="290" y="710" width="120" height="40" as="geometry" />
        </mxCell>
        <mxCell id="KXy6QdtDt1s3OpIdcK68-40" value="" style="edgeStyle=orthogonalEdgeStyle;rounded=0;orthogonalLoop=1;jettySize=auto;html=1;entryX=0.4;entryY=0.05;entryDx=0;entryDy=0;entryPerimeter=0;" edge="1" parent="WIyWlLk6GJQsqaUBKTNV-1" source="KXy6QdtDt1s3OpIdcK68-37" target="KXy6QdtDt1s3OpIdcK68-2">
          <mxGeometry relative="1" as="geometry">
            <mxPoint x="170" y="560" as="targetPoint" />
            <Array as="points">
              <mxPoint x="150" y="840" />
              <mxPoint x="150" y="588" />
            </Array>
          </mxGeometry>
        </mxCell>
        <mxCell id="KXy6QdtDt1s3OpIdcK68-44" value="" style="edgeStyle=orthogonalEdgeStyle;rounded=0;orthogonalLoop=1;jettySize=auto;html=1;" edge="1" parent="WIyWlLk6GJQsqaUBKTNV-1" source="KXy6QdtDt1s3OpIdcK68-37" target="KXy6QdtDt1s3OpIdcK68-43">
          <mxGeometry relative="1" as="geometry" />
        </mxCell>
        <mxCell id="KXy6QdtDt1s3OpIdcK68-37" value="Next Setup" style="shape=process;whiteSpace=wrap;html=1;backgroundOutline=1;" vertex="1" parent="WIyWlLk6GJQsqaUBKTNV-1">
          <mxGeometry x="410" y="820" width="95" height="40" as="geometry" />
        </mxCell>
        <mxCell id="KXy6QdtDt1s3OpIdcK68-46" value="" style="edgeStyle=orthogonalEdgeStyle;rounded=0;orthogonalLoop=1;jettySize=auto;html=1;" edge="1" parent="WIyWlLk6GJQsqaUBKTNV-1" source="KXy6QdtDt1s3OpIdcK68-43" target="KXy6QdtDt1s3OpIdcK68-45">
          <mxGeometry relative="1" as="geometry" />
        </mxCell>
        <mxCell id="KXy6QdtDt1s3OpIdcK68-43" value="Kein Setup ?" style="rhombus;whiteSpace=wrap;html=1;" vertex="1" parent="WIyWlLk6GJQsqaUBKTNV-1">
          <mxGeometry x="540" y="800" width="80" height="80" as="geometry" />
        </mxCell>
        <mxCell id="KXy6QdtDt1s3OpIdcK68-48" value="" style="edgeStyle=orthogonalEdgeStyle;rounded=0;orthogonalLoop=1;jettySize=auto;html=1;" edge="1" parent="WIyWlLk6GJQsqaUBKTNV-1" source="KXy6QdtDt1s3OpIdcK68-45" target="KXy6QdtDt1s3OpIdcK68-47">
          <mxGeometry relative="1" as="geometry" />
        </mxCell>
        <mxCell id="KXy6QdtDt1s3OpIdcK68-45" value="Copy Server C:\LTB400&lt;br&gt;to&amp;nbsp;&lt;br&gt;Client C:\LTB400" style="whiteSpace=wrap;html=1;" vertex="1" parent="WIyWlLk6GJQsqaUBKTNV-1">
          <mxGeometry x="660" y="810" width="120" height="60" as="geometry" />
        </mxCell>
        <mxCell id="KXy6QdtDt1s3OpIdcK68-50" value="" style="edgeStyle=orthogonalEdgeStyle;rounded=0;orthogonalLoop=1;jettySize=auto;html=1;" edge="1" parent="WIyWlLk6GJQsqaUBKTNV-1" source="KXy6QdtDt1s3OpIdcK68-47" target="KXy6QdtDt1s3OpIdcK68-49">
          <mxGeometry relative="1" as="geometry" />
        </mxCell>
        <mxCell id="KXy6QdtDt1s3OpIdcK68-47" value="Check Updates Files" style="whiteSpace=wrap;html=1;" vertex="1" parent="WIyWlLk6GJQsqaUBKTNV-1">
          <mxGeometry x="660" y="900" width="120" height="40" as="geometry" />
        </mxCell>
        <mxCell id="KXy6QdtDt1s3OpIdcK68-52" value="" style="edgeStyle=orthogonalEdgeStyle;rounded=0;orthogonalLoop=1;jettySize=auto;html=1;" edge="1" parent="WIyWlLk6GJQsqaUBKTNV-1" source="KXy6QdtDt1s3OpIdcK68-49" target="KXy6QdtDt1s3OpIdcK68-51">
          <mxGeometry relative="1" as="geometry" />
        </mxCell>
        <mxCell id="KXy6QdtDt1s3OpIdcK68-49" value="Compare Lastwrite Time&amp;nbsp;" style="rhombus;whiteSpace=wrap;html=1;" vertex="1" parent="WIyWlLk6GJQsqaUBKTNV-1">
          <mxGeometry x="480" y="880" width="80" height="80" as="geometry" />
        </mxCell>
        <mxCell id="KXy6QdtDt1s3OpIdcK68-70" value="" style="edgeStyle=orthogonalEdgeStyle;rounded=0;orthogonalLoop=1;jettySize=auto;html=1;" edge="1" parent="WIyWlLk6GJQsqaUBKTNV-1" source="KXy6QdtDt1s3OpIdcK68-51" target="KXy6QdtDt1s3OpIdcK68-69">
          <mxGeometry relative="1" as="geometry" />
        </mxCell>
        <mxCell id="KXy6QdtDt1s3OpIdcK68-51" value="Updates Files" style="whiteSpace=wrap;html=1;" vertex="1" parent="WIyWlLk6GJQsqaUBKTNV-1">
          <mxGeometry x="160" y="980" width="120" height="60" as="geometry" />
        </mxCell>
        <mxCell id="KXy6QdtDt1s3OpIdcK68-57" value="yes" style="text;html=1;strokeColor=none;fillColor=none;align=center;verticalAlign=middle;whiteSpace=wrap;rounded=0;" vertex="1" parent="WIyWlLk6GJQsqaUBKTNV-1">
          <mxGeometry x="280" y="660" width="40" height="20" as="geometry" />
        </mxCell>
        <mxCell id="KXy6QdtDt1s3OpIdcK68-58" value="No" style="text;html=1;align=center;verticalAlign=middle;resizable=0;points=[];autosize=1;strokeColor=none;" vertex="1" parent="WIyWlLk6GJQsqaUBKTNV-1">
          <mxGeometry x="310" y="600" width="30" height="20" as="geometry" />
        </mxCell>
        <mxCell id="KXy6QdtDt1s3OpIdcK68-59" value="yes" style="text;html=1;strokeColor=none;fillColor=none;align=center;verticalAlign=middle;whiteSpace=wrap;rounded=0;" vertex="1" parent="WIyWlLk6GJQsqaUBKTNV-1">
          <mxGeometry x="447.5" y="605" width="40" height="20" as="geometry" />
        </mxCell>
        <mxCell id="KXy6QdtDt1s3OpIdcK68-60" value="No" style="text;html=1;align=center;verticalAlign=middle;resizable=0;points=[];autosize=1;strokeColor=none;" vertex="1" parent="WIyWlLk6GJQsqaUBKTNV-1">
          <mxGeometry x="345" y="600" width="30" height="20" as="geometry" />
        </mxCell>
        <mxCell id="KXy6QdtDt1s3OpIdcK68-61" value="yes" style="text;html=1;strokeColor=none;fillColor=none;align=center;verticalAlign=middle;whiteSpace=wrap;rounded=0;" vertex="1" parent="WIyWlLk6GJQsqaUBKTNV-1">
          <mxGeometry x="430" y="900" width="40" height="20" as="geometry" />
        </mxCell>
        <mxCell id="KXy6QdtDt1s3OpIdcK68-64" value="" style="edgeStyle=orthogonalEdgeStyle;rounded=0;orthogonalLoop=1;jettySize=auto;html=1;" edge="1" parent="WIyWlLk6GJQsqaUBKTNV-1" source="KXy6QdtDt1s3OpIdcK68-62">
          <mxGeometry relative="1" as="geometry">
            <mxPoint x="392" y="990" as="targetPoint" />
          </mxGeometry>
        </mxCell>
        <mxCell id="KXy6QdtDt1s3OpIdcK68-62" value="No" style="text;html=1;align=center;verticalAlign=middle;resizable=0;points=[];autosize=1;strokeColor=none;" vertex="1" parent="WIyWlLk6GJQsqaUBKTNV-1">
          <mxGeometry x="502.5" y="960" width="30" height="20" as="geometry" />
        </mxCell>
        <mxCell id="KXy6QdtDt1s3OpIdcK68-72" value="" style="edgeStyle=orthogonalEdgeStyle;rounded=0;orthogonalLoop=1;jettySize=auto;html=1;" edge="1" parent="WIyWlLk6GJQsqaUBKTNV-1" source="KXy6QdtDt1s3OpIdcK68-69" target="KXy6QdtDt1s3OpIdcK68-71">
          <mxGeometry relative="1" as="geometry" />
        </mxCell>
        <mxCell id="KXy6QdtDt1s3OpIdcK68-69" value="Swich Sprache&amp;nbsp;" style="ellipse;shape=cloud;whiteSpace=wrap;html=1;" vertex="1" parent="WIyWlLk6GJQsqaUBKTNV-1">
          <mxGeometry x="360" y="990" width="70" height="60" as="geometry" />
        </mxCell>
        <mxCell id="KXy6QdtDt1s3OpIdcK68-71" value="Open LTB400" style="ellipse;whiteSpace=wrap;html=1;" vertex="1" parent="WIyWlLk6GJQsqaUBKTNV-1">
          <mxGeometry x="350" y="1090" width="90" height="40" as="geometry" />
        </mxCell>
      </root>
    </mxGraphModel>
  </diagram>
</mxfile>
